{"title":"NO.1 (2015)DVD Rip 1CD Mp4 AAC 5.1 Malayalam[Team DUS]","uid":12000098,"size":733895842,"categoryP":"video","categoryS":"hd___movies","magnet":"?xt=urn:btih:f283b683f79d8a758f8b88ddf02ee7b8dfa3c214&amp;dn=NO.1+%282015%29DVD+Rip+1CD+Mp4+AAC+5.1+Malayalam%5BTeam+DUS%5D&amp;tr=udp%3A%2F%2Ftracker.openbittorrent.com%3A80&amp;tr=udp%3A%2F%2Fopen.demonii.com%3A1337&amp;tr=udp%3A%2F%2Ftracker.coppersurfer.tk%3A6969&amp;tr=udp%3A%2F%2Fexodus.desync.com%3A6969","seeders":3,"leechers":0,"uploader":"Urmit","files":8,"time":1433762299,"description":"[img]http://s11.postimg.org/crf5wocv7/no1.jpg[/img]]\n\nCredit By Team TMR\n\nComplete name : NO.1 (2015) - Malayalam - DVD Rip - 1CD - Mp4 - AAC 5.1 - Team TMR.mp4\nFormat : MPEG-4\nFormat profile : Base Media\nCodec ID : isom\nFile size : 700 MiB\nDuration : 2h 21mn\nOverall bit rate mode : Variable\nOverall bit rate : 690 Kbps\nEncoded date : UTC 2015-06-07 17:18:48\nTagged date : UTC 2015-06-07 17:18:48\n\nVideo\nID : 1\nFormat : AVC\nFormat/Info : Advanced Video Codec\nFormat profile : &lt;a class=&quot;__cf_email__&quot; href=&quot;/cdn-cgi/l/email-protection&quot; data-cfemail=&quot;1850717f7058542c3629&quot;&gt;[email&amp;#160;protected]&lt;/a&gt;&lt;script data-cfhash='f9e31' type=&quot;text/javascript&quot;&gt;\n/* &lt;![CDATA[ */!function(){try{var t=&quot;currentScript&quot;in document?document.currentScript:function(){for(var t=document.getElementsByTagName(&quot;script&quot;),e=t.length;e--;)if(t[e].getAttribute(&quot;data-cfhash&quot;))return t[e]}();if(t&amp;&amp;t.previousSibling){var e,r,n,i,c=t.previousSibling,a=c.getAttribute(&quot;data-cfemail&quot;);if(a){for(e=&quot;&quot;,r=parseInt(a.substr(0,2),16),n=2;a.length-n;n+=2)i=parseInt(a.substr(n,2),16)^r,e+=String.fromCharCode(i);e=document.createTextNode(e),c.parentNode.replaceChild(e,c)}t.parentNode.removeChild(t);}}catch(u){}}()/* ]]&gt; */&lt;/script&gt;\nFormat settings, CABAC : Yes\nFormat settings, ReFrames : 3 frames\nCodec ID : avc1\nCodec ID/Info : Advanced Video Coding\nDuration : 2h 21mn\nBit rate : 576 Kbps\nMaximum bit rate : 2 742 Kbps\nWidth : 688 pixels\nHeight : 288 pixels\nDisplay aspect ratio : 2.40:1\nFrame rate mode : Constant\nFrame rate : 23.976 fps\nColor space : YUV\nChroma subsampling : 4:2:0\nBit depth : 8 bits\nScan type : Progressive\nBits/(Pixel*Frame) : 0.121\nStream size : 584 MiB (83%)\nTitle : Rasigan\nWriting library : x264 core 146 r2538 121396c\nEncoding settings : cabac=1 / ref=3 / deblock=1:0:0 / analyse=0x3:0x113 / me=hex / subme=7 / psy=1 / psy_rd=1.00:0.15 / mixed_ref=1 / me_range=16 / chroma_me=1 / trellis=1 / 8x8dct=1 / cqm=0 / deadzone=21,11 / fast_pskip=1 / chroma_qp_offset=-3 / threads=12 / lookahead_threads=2 / sliced_threads=0 / nr=0 / decimate=1 / interlaced=0 / bluray_compat=0 / constrained_intra=0 / bframes=3 / b_pyramid=0 / b_adapt=1 / b_bias=0 / direct=1 / weightb=1 / open_gop=0 / weightp=2 / keyint=240 / keyint_min=23 / scenecut=40 / intra_refresh=0 / rc_lookahead=40 / rc=2pass / mbtree=1 / bitrate=576 / ratetol=1.0 / qcomp=0.60 / qpmin=10 / qpmax=51 / qpstep=4 / cplxblur=20.0 / qblur=0.5 / vbv_maxrate=62500 / vbv_bufsize=78125 / nal_hrd=none / filler=0 / ip_ratio=1.40 / aq=1:1.00\nEncoded date : UTC 2015-06-07 12:31:14\nTagged date : UTC 2015-06-07 17:19:15\n\nAudio\nID : 2\nFormat : AAC\nFormat/Info : Advanced Audio Codec\nFormat profile : HE-AAC / LC\nCodec ID : 40\nDuration : 2h 21mn\nBit rate mode : Variable\nBit rate : 112 Kbps\nMaximum bit rate : 133 Kbps\nChannel(s) : 6 channels\nChannel positions : Front: L C R, Side: L R, LFE\nSampling rate : 48.0 KHz / 24.0 KHz\nCompression mode : Lossy\nStream size : 113 MiB (16%)\nTitle : Rasigan\nLanguage : Malay\nEncoded date : UTC 2015-06-07 11:07:38\nTagged date : UTC 2015-06-07 17:19:15\n\nText\nID : 3\nFormat : Timed Text\nCodec ID : tx3g\nDuration : 2h 20mn\nBit rate mode : Variable\nBit rate : 49 bps\nStream size : 50.2 KiB (0%)\nTitle : Rasigan\nLanguage : Malay\nEncoded date : UTC 2015-06-07 17:19:15\nTagged date : UTC 2015-06-07 17:19:15\n\nMenu\n00:00:00.000 : Chapter 01\n00:05:28.500 : Chapter 02\n00:09:30.000 : Chapter 03\n00:38:52.000 : Chapter 04\n00:42:32.500 : Chapter 05\n00:59:45.500 : Chapter 06\n01:03:09.000 : Chapter 07\n01:18:22.000 : Chapter 08\n01:28:54.500 : Chapter 09\n01:32:01.500 : Chapter 10\n01:36:10.500 : Chapter 11\n01:39:35.000 : Chapter 12\n01:47:29.000 : Chapter 13\n01:56:14.000 : Chapter 14\n02:12:13.500 : Chapter 15\n\n[img]http://t1.someimage.com/aa3oDk9.jpg[/img]\n[img]http://t1.someimage.com/IV6Efsa.jpg[/img]\n[img]http://t1.someimage.com/GLOm7aV.jpg[/img]\n[img]http://t1.someimage.com/lZ3xor2.jpg[/img]","torrent":{"xt":"urn:btih:f283b683f79d8a758f8b88ddf02ee7b8dfa3c214","amp;dn":"NO.1+%282015%29DVD+Rip+1CD+Mp4+AAC+5.1+Malayalam%5BTeam+DUS%5D","amp;tr":["udp%3A%2F%2Ftracker.openbittorrent.com%3A80","udp%3A%2F%2Fopen.demonii.com%3A1337","udp%3A%2F%2Ftracker.coppersurfer.tk%3A6969","udp%3A%2F%2Fexodus.desync.com%3A6969"],"infoHash":"f283b683f79d8a758f8b88ddf02ee7b8dfa3c214","infoHashBuffer":{"type":"Buffer","data":[242,131,182,131,247,157,138,117,143,139,136,221,240,46,231,184,223,163,194,20]},"announce":[],"urlList":[]}}